<svg width="99" height="130" viewBox="0 0 99 130" fill="none" xmlns="http://www.w3.org/2000/svg">
<path d="M75.2133 129.262C109.337 129.262 137 101.528 137 67.3165C137 33.1047 109.337 5.37061 75.2133 5.37061C41.0895 5.37061 13.4268 33.1047 13.4268 67.3165C13.4268 101.528 41.0895 129.262 75.2133 129.262Z" fill="url(#paint0_radial_2491_117)"/>
<path opacity="0.711" d="M35.0321 90.1837C46.7354 90.1837 56.2228 80.6718 56.2228 68.9383C56.2228 57.2048 46.7354 47.6929 35.0321 47.6929C23.3287 47.6929 13.8413 57.2048 13.8413 68.9383C13.8413 80.6718 23.3287 90.1837 35.0321 90.1837Z" fill="url(#paint1_radial_2491_117)"/>
<path opacity="0.711" d="M100.509 69.8927C112.212 69.8927 121.699 60.3808 121.699 48.6473C121.699 36.9137 112.212 27.4019 100.509 27.4019C88.8053 27.4019 79.3179 36.9137 79.3179 48.6473C79.3179 60.3808 88.8053 69.8927 100.509 69.8927Z" fill="url(#paint2_radial_2491_117)"/>
<ellipse cx="29.167" cy="66.1775" rx="9.21042" ry="9.23417" fill="#F79567"/>
<ellipse cx="88.2661" cy="47.7093" rx="9.21042" ry="9.23417" fill="#F79567"/>
<path d="M30.6091 28.1676C38.1672 28.1676 44.6304 33.5602 46.1325 40.963C46.4457 42.5065 45.4639 44.0148 43.9395 44.332C42.4304 44.6459 40.9554 43.6747 40.6221 42.1576L40.6124 42.1114C39.6463 37.3501 35.4798 33.8739 30.6091 33.8739C24.9686 33.8739 20.3972 38.4983 20.3972 44.2013C20.3972 45.3179 20.5714 46.4069 20.9091 47.4414L20.9434 47.5447C21.4474 49.0355 20.6625 50.6578 19.1902 51.1682C17.7179 51.6785 16.1158 50.8838 15.6117 49.393C15.0511 47.7347 14.7617 45.986 14.7617 44.2013C14.7617 35.3455 21.8574 28.1676 30.6091 28.1676ZM75.8478 14.561C83.4059 14.561 89.8691 19.9536 91.3712 27.3564C91.6844 28.8999 90.7026 30.4082 89.1782 30.7254C87.6691 31.0393 86.1941 30.0681 85.8608 28.5509L85.8511 28.5048C84.885 23.7435 80.7185 20.2673 75.8478 20.2673C70.2073 20.2673 65.6359 24.8917 65.6359 30.5947C65.6359 31.7113 65.8101 32.8003 66.1478 33.8348L66.1821 33.9381C66.6861 35.4289 65.9012 37.0512 64.4289 37.5616C62.9566 38.0719 61.3545 37.2772 60.8504 35.7864C60.2898 34.1281 60.0004 32.3794 60.0004 30.5947C60.0004 21.7389 67.0961 14.561 75.8478 14.561ZM79.6928 51.5014C80.4989 50.1691 82.2506 49.7316 83.6054 50.5243C84.9602 51.3169 85.405 53.0394 84.599 54.3717C78.6251 64.2459 69.7072 70.5096 58.8704 72.1507C51.5568 73.2583 43.8582 72.1582 35.8141 68.8944C34.3569 68.3031 33.6629 66.6621 34.2642 65.2291C34.8655 63.7961 36.5343 63.1137 37.9915 63.705C45.1137 66.5947 51.7705 67.5459 58.0015 66.6023C67.0949 65.2252 74.5636 59.9794 79.6928 51.5014Z" fill="#251C0C"/>
<path fill-rule="evenodd" clip-rule="evenodd" d="M61.7865 119.275C93.3669 119.275 118.968 93.6077 118.968 61.9459C118.968 30.2841 93.3669 4.61708 61.7865 4.61708C30.2062 4.61708 4.60521 30.2841 4.60521 61.9459C4.60521 93.6077 30.2062 119.275 61.7865 119.275ZM123.573 61.9459C123.573 96.1576 95.9103 123.892 61.7865 123.892C27.6628 123.892 0 96.1576 0 61.9459C0 27.7341 27.6628 0 61.7865 0C95.9103 0 123.573 27.7341 123.573 61.9459Z" fill="black"/>
<defs>
<radialGradient id="paint0_radial_2491_117" cx="0" cy="0" r="1" gradientUnits="userSpaceOnUse" gradientTransform="translate(6192.08 2284.98) scale(7374.35 7393.36)">
<stop stop-color="#FDE990"/>
<stop offset="1" stop-color="#FACE57"/>
</radialGradient>
<radialGradient id="paint1_radial_2491_117" cx="0" cy="0" r="1" gradientUnits="userSpaceOnUse" gradientTransform="translate(2132.92 2172.23) scale(2119.08 2124.54)">
<stop stop-color="#F6756A"/>
<stop offset="1" stop-color="#F66F6A" stop-opacity="0"/>
</radialGradient>
<radialGradient id="paint2_radial_2491_117" cx="0" cy="0" r="1" gradientUnits="userSpaceOnUse" gradientTransform="translate(2198.39 2151.94) scale(2119.08 2124.54)">
<stop stop-color="#F6756A"/>
<stop offset="1" stop-color="#F66F6A" stop-opacity="0"/>
</radialGradient>
</defs>
</svg>
